<?xml version="1.0" encoding="UTF-8"?>
<svg width="327px" height="550px" viewBox="0 0 327 550" version="1.1" xmlns="http://www.w3.org/2000/svg" xmlns:xlink="http://www.w3.org/1999/xlink">
    <title>Plantimal</title>
    <defs>
        <radialGradient cx="68.6444302%" cy="0%" fx="68.6444302%" fy="0%" r="100%" gradientTransform="translate(0.686444,0.000000),scale(0.124138,1.000000),rotate(90.000000),scale(1.000000,4.469958),translate(-0.686444,-0.000000)" id="radialGradient-1">
            <stop stop-color="#E47C00" stop-opacity="0.5" offset="0%"></stop>
            <stop stop-color="#000000" stop-opacity="0.5" offset="100%"></stop>
        </radialGradient>
        <radialGradient cx="50%" cy="0%" fx="50%" fy="0%" r="100%" gradientTransform="translate(0.500000,0.000000),scale(0.124138,1.000000),rotate(90.000000),translate(-0.500000,-0.000000)" id="radialGradient-2">
            <stop stop-color="#FE9429" stop-opacity="0.5" offset="0%"></stop>
            <stop stop-color="#D88700" stop-opacity="0.5" offset="100%"></stop>
        </radialGradient>
        <rect id="path-3" x="91" y="402.235336" width="145" height="18"></rect>
        <radialGradient cx="69.5521499%" cy="0%" fx="69.5521499%" fy="0%" r="100%" gradientTransform="translate(0.695521,0.000000),scale(0.675651,1.000000),rotate(90.000000),translate(-0.695521,-0.000000)" id="radialGradient-4">
            <stop stop-color="#D67500" stop-opacity="0.5" offset="0%"></stop>
            <stop stop-color="#000000" stop-opacity="0.5" offset="100%"></stop>
        </radialGradient>
        <polygon id="path-5" points="97 420.049362 229 420.049362 198.476807 509.235336 127.523193 509.235336"></polygon>
    </defs>
    <g id="Page-1" stroke="none" stroke-width="1" fill="none" fill-rule="evenodd">
        <g id="Plantimal" transform="translate(0.000000, 0.764664)">
            <rect id="Rectangle" stroke="#979797" fill="#965A5A" x="0.5" y="0.5" width="326" height="548"></rect>
            <path d="M168.765045,271.735336 C173.032618,282.303049 175.108646,293.219786 174.99313,304.485545 C174.877613,315.751304 172.578547,326.586381 168.095931,336.990775 C160.81484,349.141349 157.116492,360.85393 157.000885,372.128518 C156.827474,389.0404 163.771058,437.518705 167.381026,406.7119" id="Line" stroke="#00BA0B" stroke-width="8" stroke-linecap="round" stroke-linejoin="round"></path>
            <circle id="Oval" fill="#43DDFD" cx="164" cy="191.235336" r="80"></circle>
            <circle id="Oval" fill="#FFFFFF" cx="136.5" cy="175.735336" r="16.5"></circle>
            <circle id="Oval" fill="#FFFFFF" cx="181.5" cy="175.735336" r="16.5"></circle>
            <circle id="Oval" fill="#B500A3" cx="177" cy="176.235336" r="9"></circle>
            <circle id="Oval" fill="#B500A3" cx="133" cy="176.235336" r="9"></circle>
            <path d="M158.76123,144.851128 C130.79541,124.400668 122.572998,104.243743 134.093994,84.3803554 C145.61499,64.5169675 170.423809,67.2400409 208.520452,92.5495755 C240.658673,75.0519151 265.405599,69.6711879 282.76123,76.407394 C308.794678,86.511703 290.424316,132.357528 276.610107,144.851128 C267.400635,153.180195 258.116048,156.390458 248.756348,154.481918 L222.756506,153.067777 C221.426322,154.010537 211.094564,154.481918 191.76123,154.481918 C172.427897,154.481918 161.427897,151.271655 158.76123,144.851128 Z" id="Path" fill="#F08278" transform="translate(212.476958, 113.147255) rotate(35.000000) translate(-212.476958, -113.147255) "></path>
            <rect id="Rectangle" fill="#FFFFFF" x="142" y="208.235336" width="13" height="14"></rect>
            <rect id="Rectangle" fill="#FFFFFF" x="157" y="208.235336" width="13" height="14"></rect>
            <g id="Rectangle">
                <use fill="#C47524" xlink:href="#path-3"></use>
                <use fill="url(#radialGradient-1)" xlink:href="#path-3"></use>
                <use fill="url(#radialGradient-2)" xlink:href="#path-3"></use>
            </g>
            <ellipse id="Oval" fill="#43B34A" transform="translate(209.000000, 314.735336) rotate(-25.000000) translate(-209.000000, -314.735336) " cx="209" cy="314.735336" rx="39" ry="14.5"></ellipse>
            <ellipse id="Oval" fill="#4AAF50" transform="translate(128.878601, 327.974472) rotate(25.000000) translate(-128.878601, -327.974472) " cx="128.878601" cy="327.974472" rx="39" ry="14.5"></ellipse>
            <g id="Rectangle">
                <use fill="#C47524" style="mix-blend-mode: soft-light;" xlink:href="#path-5"></use>
                <use fill="url(#radialGradient-4)" xlink:href="#path-5"></use>
            </g>
            <circle id="Oval" fill="#07B4F9" cx="226" cy="91.2353359" r="9"></circle>
        </g>
    </g>
</svg>